<mxfile host="app.diagrams.net" modified="2022-11-17T18:11:51.411Z" agent="5.0 (Windows NT 10.0; Win64; x64) AppleWebKit/537.36 (KHTML, like Gecko) Chrome/107.0.0.0 Safari/537.36" etag="VC4dcSI7kBRoH63FjC2U" version="20.5.1" type="github">
  <diagram name="input webform lambda" id="AXhSCe27-4_vjdqXPUGm">
    <mxGraphModel dx="1341" dy="802" grid="1" gridSize="10" guides="1" tooltips="1" connect="1" arrows="1" fold="1" page="1" pageScale="1" pageWidth="1100" pageHeight="850" math="0" shadow="0">
      <root>
        <mxCell id="aQnDPnZ2FhOg2Dr7XkE3-0" />
        <mxCell id="aQnDPnZ2FhOg2Dr7XkE3-1" parent="aQnDPnZ2FhOg2Dr7XkE3-0" />
        <mxCell id="aQnDPnZ2FhOg2Dr7XkE3-2" value="" style="swimlane;startSize=0;labelBorderColor=none;html=1;fillColor=#ffe6cc;strokeColor=#d79b00;rounded=1;" parent="aQnDPnZ2FhOg2Dr7XkE3-1" vertex="1">
          <mxGeometry x="23" y="84" width="1055" height="170" as="geometry">
            <mxRectangle x="30" y="490" width="50" height="40" as="alternateBounds" />
          </mxGeometry>
        </mxCell>
        <mxCell id="aQnDPnZ2FhOg2Dr7XkE3-3" value="input-webform" style="outlineConnect=0;dashed=0;verticalLabelPosition=bottom;verticalAlign=top;align=center;html=1;shape=mxgraph.aws3.lambda_function;fillColor=#F58534;gradientColor=none;fontColor=#000000;fontStyle=1;fontSize=11;rounded=1;" parent="aQnDPnZ2FhOg2Dr7XkE3-2" vertex="1">
          <mxGeometry x="20" y="10" width="40" height="40" as="geometry" />
        </mxCell>
        <mxCell id="aQnDPnZ2FhOg2Dr7XkE3-4" style="edgeStyle=orthogonalEdgeStyle;curved=1;rounded=1;orthogonalLoop=1;jettySize=auto;html=1;exitX=1;exitY=0.5;exitDx=0;exitDy=0;entryX=0;entryY=0.5;entryDx=0;entryDy=0;labelBackgroundColor=#FFFFFF;fontColor=#000000;startArrow=none;startFill=0;" parent="aQnDPnZ2FhOg2Dr7XkE3-2" source="aQnDPnZ2FhOg2Dr7XkE3-21" target="aQnDPnZ2FhOg2Dr7XkE3-7" edge="1">
          <mxGeometry relative="1" as="geometry">
            <mxPoint x="510" y="32.5" as="sourcePoint" />
          </mxGeometry>
        </mxCell>
        <mxCell id="aQnDPnZ2FhOg2Dr7XkE3-5" value="yes" style="edgeStyle=orthogonalEdgeStyle;curved=1;rounded=1;orthogonalLoop=1;jettySize=auto;html=1;exitX=1;exitY=0.5;exitDx=0;exitDy=0;entryX=0;entryY=0.5;entryDx=0;entryDy=0;labelBackgroundColor=#FFFFFF;fontColor=#000000;startArrow=none;startFill=0;" parent="aQnDPnZ2FhOg2Dr7XkE3-2" source="aQnDPnZ2FhOg2Dr7XkE3-7" target="aQnDPnZ2FhOg2Dr7XkE3-11" edge="1">
          <mxGeometry relative="1" as="geometry" />
        </mxCell>
        <mxCell id="aQnDPnZ2FhOg2Dr7XkE3-6" value="no" style="edgeStyle=orthogonalEdgeStyle;rounded=1;jumpStyle=arc;orthogonalLoop=1;jettySize=auto;html=1;exitX=0.5;exitY=1;exitDx=0;exitDy=0;entryX=0;entryY=0.5;entryDx=0;entryDy=0;startArrow=none;startFill=0;endArrow=classic;endFill=1;" parent="aQnDPnZ2FhOg2Dr7XkE3-2" source="aQnDPnZ2FhOg2Dr7XkE3-7" target="aQnDPnZ2FhOg2Dr7XkE3-23" edge="1">
          <mxGeometry relative="1" as="geometry" />
        </mxCell>
        <mxCell id="aQnDPnZ2FhOg2Dr7XkE3-7" value="valid?" style="rhombus;whiteSpace=wrap;html=1;labelBorderColor=none;fillColor=#ffe6cc;strokeColor=#d79b00;rounded=1;" parent="aQnDPnZ2FhOg2Dr7XkE3-2" vertex="1">
          <mxGeometry x="560" y="12.5" width="80" height="40" as="geometry" />
        </mxCell>
        <mxCell id="aQnDPnZ2FhOg2Dr7XkE3-8" value="" style="ellipse;html=1;shape=endState;fillColor=#000000;strokeColor=#ff0000;labelBorderColor=none;fontColor=#000000;rounded=1;" parent="aQnDPnZ2FhOg2Dr7XkE3-2" vertex="1">
          <mxGeometry x="928" y="120" width="30" height="30" as="geometry" />
        </mxCell>
        <mxCell id="aQnDPnZ2FhOg2Dr7XkE3-9" style="edgeStyle=orthogonalEdgeStyle;curved=1;rounded=1;orthogonalLoop=1;jettySize=auto;html=1;exitX=1;exitY=0.5;exitDx=0;exitDy=0;entryX=0;entryY=0.5;entryDx=0;entryDy=0;entryPerimeter=0;labelBackgroundColor=#FFFFFF;fontColor=#000000;startArrow=none;startFill=0;dashed=1;" parent="aQnDPnZ2FhOg2Dr7XkE3-2" source="aQnDPnZ2FhOg2Dr7XkE3-11" target="aQnDPnZ2FhOg2Dr7XkE3-13" edge="1">
          <mxGeometry relative="1" as="geometry" />
        </mxCell>
        <mxCell id="aQnDPnZ2FhOg2Dr7XkE3-10" style="edgeStyle=orthogonalEdgeStyle;rounded=1;jumpStyle=arc;orthogonalLoop=1;jettySize=auto;html=1;exitX=0.5;exitY=1;exitDx=0;exitDy=0;entryX=0.5;entryY=0;entryDx=0;entryDy=0;startArrow=none;startFill=0;endArrow=classic;endFill=1;" parent="aQnDPnZ2FhOg2Dr7XkE3-2" source="aQnDPnZ2FhOg2Dr7XkE3-11" target="aQnDPnZ2FhOg2Dr7XkE3-23" edge="1">
          <mxGeometry relative="1" as="geometry" />
        </mxCell>
        <mxCell id="aQnDPnZ2FhOg2Dr7XkE3-11" value="Send Webform input to Queue" style="rounded=1;whiteSpace=wrap;html=1;labelBorderColor=none;fillColor=#ffe6cc;strokeColor=#d79b00;" parent="aQnDPnZ2FhOg2Dr7XkE3-2" vertex="1">
          <mxGeometry x="680" y="15" width="120" height="35" as="geometry" />
        </mxCell>
        <mxCell id="aQnDPnZ2FhOg2Dr7XkE3-12" style="edgeStyle=orthogonalEdgeStyle;rounded=1;orthogonalLoop=1;jettySize=auto;html=1;exitX=1;exitY=0.5;exitDx=0;exitDy=0;exitPerimeter=0;entryX=0;entryY=0.5;entryDx=0;entryDy=0;entryPerimeter=0;dashed=1;" parent="aQnDPnZ2FhOg2Dr7XkE3-2" source="aQnDPnZ2FhOg2Dr7XkE3-13" target="aQnDPnZ2FhOg2Dr7XkE3-24" edge="1">
          <mxGeometry relative="1" as="geometry">
            <mxPoint x="1005" y="32.5" as="targetPoint" />
          </mxGeometry>
        </mxCell>
        <mxCell id="aQnDPnZ2FhOg2Dr7XkE3-13" value="webhook-input" style="sketch=0;points=[[0,0,0],[0.25,0,0],[0.5,0,0],[0.75,0,0],[1,0,0],[0,1,0],[0.25,1,0],[0.5,1,0],[0.75,1,0],[1,1,0],[0,0.25,0],[0,0.5,0],[0,0.75,0],[1,0.25,0],[1,0.5,0],[1,0.75,0]];outlineConnect=0;fontColor=#232F3E;gradientColor=#FF4F8B;gradientDirection=north;fillColor=#BC1356;strokeColor=#ffffff;dashed=0;verticalLabelPosition=bottom;verticalAlign=top;align=center;html=1;fontSize=11;fontStyle=1;aspect=fixed;shape=mxgraph.aws4.resourceIcon;resIcon=mxgraph.aws4.sqs;labelBorderColor=none;rounded=1;" parent="aQnDPnZ2FhOg2Dr7XkE3-2" vertex="1">
          <mxGeometry x="880" y="8.5" width="48" height="48" as="geometry" />
        </mxCell>
        <mxCell id="aQnDPnZ2FhOg2Dr7XkE3-14" style="edgeStyle=orthogonalEdgeStyle;rounded=1;jumpStyle=arc;orthogonalLoop=1;jettySize=auto;html=1;exitX=0.5;exitY=1;exitDx=0;exitDy=0;entryX=0.5;entryY=0;entryDx=0;entryDy=0;startArrow=none;startFill=0;endArrow=classic;endFill=1;" parent="aQnDPnZ2FhOg2Dr7XkE3-2" source="aQnDPnZ2FhOg2Dr7XkE3-16" target="aQnDPnZ2FhOg2Dr7XkE3-18" edge="1">
          <mxGeometry relative="1" as="geometry" />
        </mxCell>
        <mxCell id="aQnDPnZ2FhOg2Dr7XkE3-15" style="edgeStyle=orthogonalEdgeStyle;rounded=1;jumpStyle=arc;orthogonalLoop=1;jettySize=auto;html=1;exitX=1;exitY=0.5;exitDx=0;exitDy=0;entryX=0;entryY=0.5;entryDx=0;entryDy=0;startArrow=none;startFill=0;endArrow=classic;endFill=1;" parent="aQnDPnZ2FhOg2Dr7XkE3-2" source="aQnDPnZ2FhOg2Dr7XkE3-16" target="aQnDPnZ2FhOg2Dr7XkE3-21" edge="1">
          <mxGeometry relative="1" as="geometry">
            <mxPoint x="260" y="32.5" as="targetPoint" />
          </mxGeometry>
        </mxCell>
        <mxCell id="aQnDPnZ2FhOg2Dr7XkE3-16" value="Validate WebForm Input" style="rounded=1;whiteSpace=wrap;html=1;fillColor=#ffe6cc;strokeColor=#d79b00;" parent="aQnDPnZ2FhOg2Dr7XkE3-2" vertex="1">
          <mxGeometry x="95" y="15" width="120" height="35" as="geometry" />
        </mxCell>
        <mxCell id="aQnDPnZ2FhOg2Dr7XkE3-17" value="no&amp;nbsp;" style="edgeStyle=orthogonalEdgeStyle;rounded=1;jumpStyle=arc;orthogonalLoop=1;jettySize=auto;html=1;exitX=0.5;exitY=1;exitDx=0;exitDy=0;entryX=0.5;entryY=1;entryDx=0;entryDy=0;startArrow=none;startFill=0;endArrow=classic;endFill=1;" parent="aQnDPnZ2FhOg2Dr7XkE3-2" source="aQnDPnZ2FhOg2Dr7XkE3-18" target="aQnDPnZ2FhOg2Dr7XkE3-23" edge="1">
          <mxGeometry x="-0.9565" y="-15" relative="1" as="geometry">
            <mxPoint as="offset" />
            <Array as="points">
              <mxPoint x="155" y="146" />
              <mxPoint x="740" y="146" />
            </Array>
          </mxGeometry>
        </mxCell>
        <mxCell id="aQnDPnZ2FhOg2Dr7XkE3-18" value="valid?" style="rhombus;whiteSpace=wrap;html=1;fillColor=#ffe6cc;strokeColor=#d79b00;rounded=1;" parent="aQnDPnZ2FhOg2Dr7XkE3-2" vertex="1">
          <mxGeometry x="115" y="80" width="80" height="40" as="geometry" />
        </mxCell>
        <mxCell id="aQnDPnZ2FhOg2Dr7XkE3-21" value="Validate Webform State" style="rounded=1;whiteSpace=wrap;html=1;fillColor=#ffe6cc;strokeColor=#d79b00;" parent="aQnDPnZ2FhOg2Dr7XkE3-2" vertex="1">
          <mxGeometry x="317" y="15" width="90" height="35" as="geometry" />
        </mxCell>
        <mxCell id="aQnDPnZ2FhOg2Dr7XkE3-22" value="400/404/500" style="edgeStyle=orthogonalEdgeStyle;rounded=1;jumpStyle=arc;orthogonalLoop=1;jettySize=auto;html=1;exitX=1;exitY=0.5;exitDx=0;exitDy=0;entryX=0.5;entryY=0;entryDx=0;entryDy=0;startArrow=none;startFill=0;endArrow=classic;endFill=1;" parent="aQnDPnZ2FhOg2Dr7XkE3-2" source="aQnDPnZ2FhOg2Dr7XkE3-23" target="aQnDPnZ2FhOg2Dr7XkE3-8" edge="1">
          <mxGeometry relative="1" as="geometry">
            <Array as="points">
              <mxPoint x="800" y="106" />
              <mxPoint x="943" y="106" />
            </Array>
          </mxGeometry>
        </mxCell>
        <mxCell id="aQnDPnZ2FhOg2Dr7XkE3-23" value="Response with&lt;br&gt;statusCode = code" style="rounded=1;whiteSpace=wrap;html=1;fillColor=#ffe6cc;strokeColor=#d79b00;" parent="aQnDPnZ2FhOg2Dr7XkE3-2" vertex="1">
          <mxGeometry x="680" y="90" width="120" height="35" as="geometry" />
        </mxCell>
        <UserObject label="WebHook Worker" id="aQnDPnZ2FhOg2Dr7XkE3-24">
          <mxCell style="outlineConnect=0;dashed=0;verticalLabelPosition=bottom;verticalAlign=top;align=center;html=1;shape=mxgraph.aws3.android;fillColor=#EE472A;gradientColor=none;aspect=fixed;fontColor=#1726FF;fontStyle=5;fontSize=11;rounded=1;" parent="aQnDPnZ2FhOg2Dr7XkE3-2" vertex="1">
            <mxGeometry x="987" y="8.5" width="48" height="48" as="geometry" />
          </mxCell>
        </UserObject>
        <mxCell id="aQnDPnZ2FhOg2Dr7XkE3-55" value="" style="ellipse;html=1;shape=startState;fillColor=#000000;strokeColor=#ff0000;rounded=1;" parent="aQnDPnZ2FhOg2Dr7XkE3-1" vertex="1">
          <mxGeometry x="163" y="10" width="30" height="30" as="geometry" />
        </mxCell>
        <mxCell id="aQnDPnZ2FhOg2Dr7XkE3-56" value="" style="edgeStyle=orthogonalEdgeStyle;html=1;verticalAlign=bottom;endArrow=open;endSize=8;strokeColor=#ff0000;rounded=1;entryX=0.5;entryY=0;entryDx=0;entryDy=0;" parent="aQnDPnZ2FhOg2Dr7XkE3-1" source="aQnDPnZ2FhOg2Dr7XkE3-55" target="aQnDPnZ2FhOg2Dr7XkE3-16" edge="1">
          <mxGeometry relative="1" as="geometry">
            <mxPoint x="153" y="60" as="targetPoint" />
          </mxGeometry>
        </mxCell>
        <mxCell id="4QjAw26p4u-xFoR1v3yk-0" value="Validate Webform Input" style="points=[[0,0],[0.25,0],[0.5,0],[0.75,0],[1,0],[1,0.25],[1,0.5],[1,0.75],[1,1],[0.75,1],[0.5,1],[0.25,1],[0,1],[0,0.75],[0,0.5],[0,0.25]];outlineConnect=0;html=1;whiteSpace=wrap;fontSize=12;fontStyle=0;container=1;pointerEvents=0;collapsible=0;recursiveResize=0;shape=mxgraph.aws4.group;grIcon=mxgraph.aws4.group_corporate_data_center;strokeColor=#d79b00;fillColor=#ffe6cc;verticalAlign=top;align=left;spacingLeft=30;dashed=0;rounded=1;" parent="aQnDPnZ2FhOg2Dr7XkE3-1" vertex="1">
          <mxGeometry x="23" y="260" width="247" height="190" as="geometry" />
        </mxCell>
        <mxCell id="4QjAw26p4u-xFoR1v3yk-13" style="edgeStyle=orthogonalEdgeStyle;rounded=1;orthogonalLoop=1;jettySize=auto;html=1;exitX=1;exitY=0.5;exitDx=0;exitDy=0;entryX=0;entryY=0.5;entryDx=0;entryDy=0;" parent="4QjAw26p4u-xFoR1v3yk-0" source="4QjAw26p4u-xFoR1v3yk-11" target="4QjAw26p4u-xFoR1v3yk-12" edge="1">
          <mxGeometry relative="1" as="geometry" />
        </mxCell>
        <mxCell id="4QjAw26p4u-xFoR1v3yk-11" value="" style="ellipse;html=1;shape=startState;fillColor=#000000;strokeColor=#ff0000;rounded=1;" parent="4QjAw26p4u-xFoR1v3yk-0" vertex="1">
          <mxGeometry x="7" y="30" width="30" height="30" as="geometry" />
        </mxCell>
        <mxCell id="4QjAw26p4u-xFoR1v3yk-16" style="edgeStyle=orthogonalEdgeStyle;rounded=1;orthogonalLoop=1;jettySize=auto;html=1;exitX=1;exitY=0.5;exitDx=0;exitDy=0;" parent="4QjAw26p4u-xFoR1v3yk-0" source="4QjAw26p4u-xFoR1v3yk-12" target="4QjAw26p4u-xFoR1v3yk-15" edge="1">
          <mxGeometry relative="1" as="geometry" />
        </mxCell>
        <mxCell id="4QjAw26p4u-xFoR1v3yk-18" style="edgeStyle=orthogonalEdgeStyle;rounded=1;orthogonalLoop=1;jettySize=auto;html=1;exitX=0.5;exitY=1;exitDx=0;exitDy=0;entryX=0.5;entryY=0;entryDx=0;entryDy=0;entryPerimeter=0;fontSize=11;dashed=1;endArrow=none;endFill=0;" parent="4QjAw26p4u-xFoR1v3yk-0" source="4QjAw26p4u-xFoR1v3yk-15" target="4QjAw26p4u-xFoR1v3yk-17" edge="1">
          <mxGeometry relative="1" as="geometry" />
        </mxCell>
        <mxCell id="4QjAw26p4u-xFoR1v3yk-12" value="uuid &amp;amp;&amp;amp; contact.hasPhone()" style="rounded=1;whiteSpace=wrap;html=1;fillColor=#fad7ac;strokeColor=#b46504;" parent="4QjAw26p4u-xFoR1v3yk-0" vertex="1">
          <mxGeometry x="57" y="30" width="120" height="30" as="geometry" />
        </mxCell>
        <mxCell id="4QjAw26p4u-xFoR1v3yk-15" value="" style="ellipse;html=1;shape=endState;fillColor=#000000;strokeColor=#ff0000;labelBorderColor=none;fontColor=#000000;rounded=1;" parent="4QjAw26p4u-xFoR1v3yk-0" vertex="1">
          <mxGeometry x="210" y="30" width="30" height="30" as="geometry" />
        </mxCell>
        <mxCell id="4QjAw26p4u-xFoR1v3yk-17" value="0&lt;br style=&quot;font-size: 11px;&quot;&gt;-------------------------------&lt;br style=&quot;font-size: 11px;&quot;&gt;{&lt;br style=&quot;font-size: 11px;&quot;&gt;&lt;blockquote style=&quot;margin: 0px 0px 0px 40px; border: none; padding: 0px; font-size: 11px;&quot;&gt;code: 400&lt;br style=&quot;font-size: 11px;&quot;&gt;message: &quot;Data required&quot;&lt;/blockquote&gt;}" style="shape=note;whiteSpace=wrap;html=1;backgroundOutline=1;darkOpacity=0.05;fontStyle=0;fontSize=11;align=left;spacingLeft=3;rounded=1;" parent="4QjAw26p4u-xFoR1v3yk-0" vertex="1">
          <mxGeometry x="37" y="90" width="173" height="90" as="geometry" />
        </mxCell>
        <mxCell id="4QjAw26p4u-xFoR1v3yk-19" value="Validate Webform State" style="points=[[0,0],[0.25,0],[0.5,0],[0.75,0],[1,0],[1,0.25],[1,0.5],[1,0.75],[1,1],[0.75,1],[0.5,1],[0.25,1],[0,1],[0,0.75],[0,0.5],[0,0.25]];outlineConnect=0;html=1;whiteSpace=wrap;fontSize=12;fontStyle=0;container=1;pointerEvents=0;collapsible=0;recursiveResize=0;shape=mxgraph.aws4.group;grIcon=mxgraph.aws4.group_corporate_data_center;strokeColor=#d79b00;fillColor=#ffe6cc;verticalAlign=top;align=left;spacingLeft=30;dashed=0;rounded=1;" parent="aQnDPnZ2FhOg2Dr7XkE3-1" vertex="1">
          <mxGeometry x="281" y="260" width="797" height="300" as="geometry" />
        </mxCell>
        <mxCell id="4QjAw26p4u-xFoR1v3yk-20" style="edgeStyle=orthogonalEdgeStyle;rounded=1;orthogonalLoop=1;jettySize=auto;html=1;exitX=1;exitY=0.5;exitDx=0;exitDy=0;entryX=0;entryY=0.5;entryDx=0;entryDy=0;" parent="4QjAw26p4u-xFoR1v3yk-19" source="4QjAw26p4u-xFoR1v3yk-21" target="4QjAw26p4u-xFoR1v3yk-24" edge="1">
          <mxGeometry relative="1" as="geometry" />
        </mxCell>
        <mxCell id="4QjAw26p4u-xFoR1v3yk-21" value="" style="ellipse;html=1;shape=startState;fillColor=#000000;strokeColor=#ff0000;rounded=1;" parent="4QjAw26p4u-xFoR1v3yk-19" vertex="1">
          <mxGeometry x="10" y="45" width="30" height="30" as="geometry" />
        </mxCell>
        <mxCell id="4QjAw26p4u-xFoR1v3yk-22" style="edgeStyle=orthogonalEdgeStyle;rounded=1;orthogonalLoop=1;jettySize=auto;html=1;exitX=1;exitY=0.5;exitDx=0;exitDy=0;entryX=0;entryY=0.5;entryDx=0;entryDy=0;" parent="4QjAw26p4u-xFoR1v3yk-19" source="4QjAw26p4u-xFoR1v3yk-24" target="4QjAw26p4u-xFoR1v3yk-27" edge="1">
          <mxGeometry relative="1" as="geometry" />
        </mxCell>
        <mxCell id="4QjAw26p4u-xFoR1v3yk-24" value="Get Webform" style="rounded=1;whiteSpace=wrap;html=1;fillColor=#fad7ac;strokeColor=#b46504;" parent="4QjAw26p4u-xFoR1v3yk-19" vertex="1">
          <mxGeometry x="87" y="45" width="120" height="30" as="geometry" />
        </mxCell>
        <mxCell id="4QjAw26p4u-xFoR1v3yk-25" value="Valid" style="ellipse;html=1;shape=endState;fillColor=#000000;strokeColor=#ff0000;labelBorderColor=none;fontColor=#000000;spacingTop=50;rounded=1;" parent="4QjAw26p4u-xFoR1v3yk-19" vertex="1">
          <mxGeometry x="757" y="45" width="30" height="30" as="geometry" />
        </mxCell>
        <mxCell id="4QjAw26p4u-xFoR1v3yk-28" value="YES" style="edgeStyle=orthogonalEdgeStyle;rounded=1;orthogonalLoop=1;jettySize=auto;html=1;exitX=1;exitY=0.5;exitDx=0;exitDy=0;entryX=0;entryY=0.5;entryDx=0;entryDy=0;fontSize=11;endArrow=classic;endFill=1;labelBackgroundColor=none;" parent="4QjAw26p4u-xFoR1v3yk-19" source="4QjAw26p4u-xFoR1v3yk-27" target="4QjAw26p4u-xFoR1v3yk-25" edge="1">
          <mxGeometry x="-0.8274" y="10" relative="1" as="geometry">
            <mxPoint as="offset" />
          </mxGeometry>
        </mxCell>
        <mxCell id="4QjAw26p4u-xFoR1v3yk-32" value="NO" style="edgeStyle=orthogonalEdgeStyle;rounded=1;orthogonalLoop=1;jettySize=auto;html=1;exitX=0.5;exitY=1;exitDx=0;exitDy=0;entryX=0.5;entryY=0;entryDx=0;entryDy=0;fontSize=11;endArrow=classic;endFill=1;labelBackgroundColor=none;" parent="4QjAw26p4u-xFoR1v3yk-19" source="4QjAw26p4u-xFoR1v3yk-27" target="4QjAw26p4u-xFoR1v3yk-30" edge="1">
          <mxGeometry relative="1" as="geometry" />
        </mxCell>
        <mxCell id="4QjAw26p4u-xFoR1v3yk-27" value="empty?" style="rhombus;whiteSpace=wrap;html=1;fontSize=11;fillColor=#fad7ac;strokeColor=#b46504;rounded=1;" parent="4QjAw26p4u-xFoR1v3yk-19" vertex="1">
          <mxGeometry x="250" y="35" width="80" height="50" as="geometry" />
        </mxCell>
        <mxCell id="4QjAw26p4u-xFoR1v3yk-31" value="NO" style="edgeStyle=orthogonalEdgeStyle;orthogonalLoop=1;jettySize=auto;html=1;exitX=0;exitY=0.5;exitDx=0;exitDy=0;fontSize=11;endArrow=classic;endFill=1;entryX=0;entryY=0.5;entryDx=0;entryDy=0;rounded=1;startArrow=none;startFill=0;jumpStyle=arc;labelBackgroundColor=none;" parent="4QjAw26p4u-xFoR1v3yk-19" source="4QjAw26p4u-xFoR1v3yk-30" target="4QjAw26p4u-xFoR1v3yk-33" edge="1">
          <mxGeometry x="-0.9737" y="-10" relative="1" as="geometry">
            <Array as="points">
              <mxPoint x="197" y="130" />
              <mxPoint x="197" y="280" />
              <mxPoint x="437" y="280" />
              <mxPoint x="437" y="255" />
            </Array>
            <mxPoint as="offset" />
          </mxGeometry>
        </mxCell>
        <mxCell id="4QjAw26p4u-xFoR1v3yk-35" value="YES" style="edgeStyle=orthogonalEdgeStyle;rounded=1;orthogonalLoop=1;jettySize=auto;html=1;exitX=0.5;exitY=1;exitDx=0;exitDy=0;entryX=0;entryY=0.5;entryDx=0;entryDy=0;fontSize=11;endArrow=classic;endFill=1;labelBackgroundColor=none;" parent="4QjAw26p4u-xFoR1v3yk-19" source="4QjAw26p4u-xFoR1v3yk-30" target="4QjAw26p4u-xFoR1v3yk-39" edge="1">
          <mxGeometry x="-0.6054" y="-10" relative="1" as="geometry">
            <mxPoint x="290" y="180" as="targetPoint" />
            <mxPoint as="offset" />
          </mxGeometry>
        </mxCell>
        <mxCell id="4QjAw26p4u-xFoR1v3yk-30" value="isActive?" style="rhombus;whiteSpace=wrap;html=1;fontSize=11;fillColor=#fad7ac;strokeColor=#b46504;rounded=1;" parent="4QjAw26p4u-xFoR1v3yk-19" vertex="1">
          <mxGeometry x="250" y="110" width="80" height="40" as="geometry" />
        </mxCell>
        <mxCell id="4QjAw26p4u-xFoR1v3yk-33" value="Invalid" style="ellipse;html=1;shape=endState;fillColor=#000000;strokeColor=#ff0000;labelBorderColor=none;fontColor=#000000;spacingTop=50;rounded=1;" parent="4QjAw26p4u-xFoR1v3yk-19" vertex="1">
          <mxGeometry x="678.5" y="240" width="30" height="30" as="geometry" />
        </mxCell>
        <mxCell id="4QjAw26p4u-xFoR1v3yk-42" style="edgeStyle=orthogonalEdgeStyle;rounded=1;jumpStyle=arc;orthogonalLoop=1;jettySize=auto;html=1;exitX=0.5;exitY=1;exitDx=0;exitDy=0;entryX=0.521;entryY=-0.042;entryDx=0;entryDy=0;entryPerimeter=0;fontSize=11;startArrow=classic;startFill=1;endArrow=classic;endFill=1;dashed=1;" parent="4QjAw26p4u-xFoR1v3yk-19" source="4QjAw26p4u-xFoR1v3yk-39" target="4QjAw26p4u-xFoR1v3yk-41" edge="1">
          <mxGeometry relative="1" as="geometry" />
        </mxCell>
        <mxCell id="4QjAw26p4u-xFoR1v3yk-49" style="edgeStyle=orthogonalEdgeStyle;rounded=1;jumpStyle=arc;orthogonalLoop=1;jettySize=auto;html=1;exitX=1;exitY=0.5;exitDx=0;exitDy=0;entryX=0;entryY=0.5;entryDx=0;entryDy=0;labelBackgroundColor=none;fontSize=11;startArrow=none;startFill=0;endArrow=classic;endFill=1;" parent="4QjAw26p4u-xFoR1v3yk-19" source="4QjAw26p4u-xFoR1v3yk-39" target="4QjAw26p4u-xFoR1v3yk-48" edge="1">
          <mxGeometry relative="1" as="geometry" />
        </mxCell>
        <mxCell id="4QjAw26p4u-xFoR1v3yk-39" value="Get Organization Permissions" style="rounded=1;whiteSpace=wrap;html=1;fontSize=11;fillColor=#fad7ac;strokeColor=#b46504;" parent="4QjAw26p4u-xFoR1v3yk-19" vertex="1">
          <mxGeometry x="377" y="112.5" width="120" height="35" as="geometry" />
        </mxCell>
        <mxCell id="aQnDPnZ2FhOg2Dr7XkE3-51" value="&lt;span style=&quot;text-align: center;&quot;&gt;Distributed Cache&lt;/span&gt;" style="sketch=0;html=1;points=[];align=left;image;fontSize=11;image=img/lib/mscae/Cache_Redis_Product.svg;spacingLeft=0;labelBackgroundColor=none;aspect=fixed;fontStyle=1;labelPosition=right;verticalLabelPosition=middle;verticalAlign=middle;spacing=5;rounded=1;" parent="4QjAw26p4u-xFoR1v3yk-19" vertex="1">
          <mxGeometry x="27" y="231" width="48" height="48" as="geometry" />
        </mxCell>
        <mxCell id="aQnDPnZ2FhOg2Dr7XkE3-26" style="edgeStyle=orthogonalEdgeStyle;rounded=1;orthogonalLoop=1;jettySize=auto;html=1;exitX=0.25;exitY=1;exitDx=0;exitDy=0;startArrow=classic;startFill=1;endArrow=classic;endFill=1;entryX=0.54;entryY=0.012;entryDx=0;entryDy=0;entryPerimeter=0;dashed=1;" parent="4QjAw26p4u-xFoR1v3yk-19" source="4QjAw26p4u-xFoR1v3yk-24" target="aQnDPnZ2FhOg2Dr7XkE3-51" edge="1">
          <mxGeometry relative="1" as="geometry">
            <mxPoint x="140" y="-40" as="targetPoint" />
          </mxGeometry>
        </mxCell>
        <mxCell id="aQnDPnZ2FhOg2Dr7XkE3-29" value="key: &#39;webform_&#39; + {uuid}" style="text;html=1;strokeColor=#666666;fillColor=#f5f5f5;align=center;verticalAlign=middle;whiteSpace=wrap;rounded=1;labelBorderColor=none;fontColor=#333333;" parent="4QjAw26p4u-xFoR1v3yk-19" vertex="1">
          <mxGeometry x="10" y="120" width="145" height="30" as="geometry" />
        </mxCell>
        <mxCell id="4QjAw26p4u-xFoR1v3yk-41" value="&lt;span style=&quot;text-align: center;&quot;&gt;Distributed Cache&lt;/span&gt;" style="sketch=0;html=1;points=[];align=left;image;fontSize=11;image=img/lib/mscae/Cache_Redis_Product.svg;spacingLeft=0;labelBackgroundColor=none;aspect=fixed;fontStyle=1;labelPosition=right;verticalLabelPosition=middle;verticalAlign=middle;spacing=5;rounded=1;" parent="4QjAw26p4u-xFoR1v3yk-19" vertex="1">
          <mxGeometry x="413" y="192" width="48" height="48" as="geometry" />
        </mxCell>
        <mxCell id="4QjAw26p4u-xFoR1v3yk-43" value="key &#39;permissions_&#39; + {organizationId}" style="rounded=1;whiteSpace=wrap;html=1;fontSize=11;fillColor=#f5f5f5;fontColor=#333333;strokeColor=#666666;" parent="4QjAw26p4u-xFoR1v3yk-19" vertex="1">
          <mxGeometry x="447" y="160" width="120" height="32" as="geometry" />
        </mxCell>
        <mxCell id="4QjAw26p4u-xFoR1v3yk-46" value="YES" style="edgeStyle=orthogonalEdgeStyle;rounded=1;jumpStyle=arc;orthogonalLoop=1;jettySize=auto;html=1;exitX=1;exitY=0.5;exitDx=0;exitDy=0;entryX=0.5;entryY=1;entryDx=0;entryDy=0;fontSize=11;startArrow=none;startFill=0;endArrow=classic;endFill=1;labelBackgroundColor=none;" parent="4QjAw26p4u-xFoR1v3yk-19" source="4QjAw26p4u-xFoR1v3yk-44" target="4QjAw26p4u-xFoR1v3yk-25" edge="1">
          <mxGeometry x="-0.9121" y="10" relative="1" as="geometry">
            <mxPoint as="offset" />
          </mxGeometry>
        </mxCell>
        <mxCell id="4QjAw26p4u-xFoR1v3yk-47" value="NO" style="edgeStyle=orthogonalEdgeStyle;rounded=1;jumpStyle=arc;orthogonalLoop=1;jettySize=auto;html=1;exitX=0.5;exitY=1;exitDx=0;exitDy=0;entryX=0.5;entryY=0;entryDx=0;entryDy=0;labelBackgroundColor=none;fontSize=11;startArrow=none;startFill=0;endArrow=classic;endFill=1;" parent="4QjAw26p4u-xFoR1v3yk-19" source="4QjAw26p4u-xFoR1v3yk-44" target="4QjAw26p4u-xFoR1v3yk-33" edge="1">
          <mxGeometry x="-0.8944" y="14" relative="1" as="geometry">
            <mxPoint as="offset" />
          </mxGeometry>
        </mxCell>
        <mxCell id="4QjAw26p4u-xFoR1v3yk-44" value="webhooks==true?" style="rhombus;whiteSpace=wrap;html=1;fontSize=11;fillColor=#fad7ac;strokeColor=#b46504;rounded=1;" parent="4QjAw26p4u-xFoR1v3yk-19" vertex="1">
          <mxGeometry x="637" y="105" width="113" height="50" as="geometry" />
        </mxCell>
        <mxCell id="4QjAw26p4u-xFoR1v3yk-50" value="NO" style="edgeStyle=orthogonalEdgeStyle;rounded=1;jumpStyle=arc;orthogonalLoop=1;jettySize=auto;html=1;exitX=1;exitY=0.5;exitDx=0;exitDy=0;entryX=0;entryY=0.5;entryDx=0;entryDy=0;labelBackgroundColor=none;fontSize=11;startArrow=none;startFill=0;endArrow=classic;endFill=1;" parent="4QjAw26p4u-xFoR1v3yk-19" source="4QjAw26p4u-xFoR1v3yk-48" target="4QjAw26p4u-xFoR1v3yk-44" edge="1">
          <mxGeometry x="-0.9277" y="20" relative="1" as="geometry">
            <mxPoint as="offset" />
          </mxGeometry>
        </mxCell>
        <mxCell id="4QjAw26p4u-xFoR1v3yk-51" value="YES" style="edgeStyle=orthogonalEdgeStyle;rounded=1;jumpStyle=arc;orthogonalLoop=1;jettySize=auto;html=1;exitX=0.5;exitY=0;exitDx=0;exitDy=0;entryX=0;entryY=0.5;entryDx=0;entryDy=0;labelBackgroundColor=none;fontSize=11;startArrow=none;startFill=0;endArrow=classic;endFill=1;" parent="4QjAw26p4u-xFoR1v3yk-19" source="4QjAw26p4u-xFoR1v3yk-48" target="4QjAw26p4u-xFoR1v3yk-25" edge="1">
          <mxGeometry x="-0.9446" y="10" relative="1" as="geometry">
            <Array as="points">
              <mxPoint x="567" y="113" />
              <mxPoint x="567" y="60" />
            </Array>
            <mxPoint as="offset" />
          </mxGeometry>
        </mxCell>
        <mxCell id="4QjAw26p4u-xFoR1v3yk-48" value="empty?" style="rhombus;whiteSpace=wrap;html=1;fontSize=11;fillColor=#fad7ac;strokeColor=#b46504;rounded=1;" parent="4QjAw26p4u-xFoR1v3yk-19" vertex="1">
          <mxGeometry x="531" y="112.5" width="70" height="35" as="geometry" />
        </mxCell>
      </root>
    </mxGraphModel>
  </diagram>
</mxfile>
